<svg width="20" height="20" viewBox="0 0 20 20" fill="none" xmlns="http://www.w3.org/2000/svg">
<g clip-path="url(#clip0_4585_6)">
<path d="M10.0002 1.8C12.6738 1.8 12.9896 1.8 14.0423 1.86316C15.0212 1.90526 15.5475 2.07368 15.8949 2.21053C16.358 2.38947 16.6949 2.61053 17.0423 2.95789C17.3896 3.30526 17.6107 3.64211 17.7896 4.10526C17.9265 4.45263 18.0844 4.98947 18.137 5.95789C18.1896 7.01053 18.2002 7.32632 18.2002 10C18.2002 12.6737 18.2002 12.9895 18.137 14.0421C18.0949 15.0211 17.9265 15.5474 17.7896 15.8947C17.6107 16.3579 17.3896 16.6947 17.0423 17.0421C16.6949 17.3895 16.358 17.6105 15.8949 17.7895C15.5475 17.9263 15.0107 18.0842 14.0423 18.1368C12.9896 18.1895 12.6738 18.2 10.0002 18.2C7.32647 18.2 7.01068 18.2 5.95805 18.1368C4.9791 18.0947 4.45278 17.9263 4.10541 17.7895C3.64226 17.6105 3.30541 17.3895 2.95805 17.0421C2.61068 16.6947 2.38962 16.3579 2.21068 15.8947C2.07383 15.5474 1.91594 15.0105 1.86331 14.0421C1.81068 12.9895 1.80015 12.6737 1.80015 10C1.80015 7.32632 1.80015 7.01053 1.86331 5.95789C1.90541 4.97895 2.07383 4.45263 2.21068 4.10526C2.38962 3.64211 2.61068 3.30526 2.95805 2.95789C3.30541 2.61053 3.64226 2.38947 4.10541 2.21053C4.45278 2.07368 4.98962 1.91579 5.95805 1.86316C7.01068 1.81053 7.32647 1.8 10.0002 1.8V1.8ZM10.0002 0C7.28436 0 6.94752 0.0105263 5.87383 0.0631579C4.81068 0.115789 4.08436 0.284211 3.44226 0.526316C2.78962 0.778947 2.23173 1.12632 1.67383 1.68421C1.11594 2.24211 0.779098 2.8 0.51594 3.45263C0.273835 4.08421 0.0948872 4.81053 0.0527819 5.88421C0.000150341 6.94737 -0.010376 7.29474 -0.010376 10.0105C-0.010376 12.7263 0.000150341 13.0632 0.0527819 14.1368C0.105414 15.2 0.273835 15.9263 0.51594 16.5684C0.768571 17.2211 1.11594 17.7789 1.67383 18.3368C2.23173 18.8947 2.78962 19.2316 3.44226 19.4947C4.07383 19.7368 4.80015 19.9158 5.87383 19.9579C6.93699 20.0105 7.28436 20.0211 10.0002 20.0211C12.7159 20.0211 13.0528 20.0105 14.1265 19.9579C15.1896 19.9053 15.9159 19.7368 16.558 19.4947C17.2107 19.2421 17.7686 18.8947 18.3265 18.3368C18.8844 17.7789 19.2212 17.2211 19.4844 16.5684C19.7265 15.9368 19.9054 15.2105 19.9475 14.1368C20.0002 13.0737 20.0107 12.7263 20.0107 10.0105C20.0107 7.29474 20.0002 6.9579 19.9475 5.88421C19.8949 4.82105 19.7265 4.09474 19.4844 3.45263C19.2317 2.8 18.8844 2.24211 18.3265 1.68421C17.7686 1.12632 17.2107 0.789474 16.558 0.526316C15.9265 0.284211 15.2002 0.105263 14.1265 0.0631579C13.0633 0.0105263 12.7159 0 10.0002 0" fill="white"/>
<path d="M10 4.86304C7.16842 4.86304 4.86316 7.15777 4.86316 9.99988C4.86316 12.842 7.1579 15.1367 10 15.1367C12.8421 15.1367 15.1368 12.842 15.1368 9.99988C15.1368 7.15777 12.8421 4.86304 10 4.86304ZM10 13.3367C8.1579 13.3367 6.66316 11.842 6.66316 9.99988C6.66316 8.15777 8.1579 6.66304 10 6.66304C11.8421 6.66304 13.3368 8.15777 13.3368 9.99988C13.3368 11.842 11.8421 13.3367 10 13.3367Z" fill="white"/>
<path d="M16.5368 4.66313C16.5368 5.32629 16 5.86314 15.3368 5.86314C14.6737 5.86314 14.1368 5.32629 14.1368 4.66313C14.1368 3.99998 14.6737 3.46313 15.3368 3.46313C16 3.46313 16.5368 3.99998 16.5368 4.66313Z" fill="white"/>
</g>
<defs>
<clipPath id="clip0_4585_6">
<rect width="20" height="20" fill="white"/>
</clipPath>
</defs>
</svg>
