<svg width="27" height="19" viewBox="0 0 27 19" fill="none" xmlns="http://www.w3.org/2000/svg">
<path d="M25.4769 3.06882C25.1798 1.93727 24.2997 1.05718 23.1796 0.74858C21.1451 0.199951 13.0185 0.199951 13.0185 0.199951C13.0185 0.199951 4.88051 0.199951 2.85744 0.74858C1.72589 1.05718 0.845802 1.9487 0.548628 3.06882C0 5.11475 0 9.36662 0 9.36662C0 9.36662 0 13.6299 0.548628 15.6644C0.845802 16.796 1.72589 17.6761 2.84601 17.9847C4.88051 18.5333 13.0071 18.5333 13.0071 18.5333C13.0071 18.5333 21.1451 18.5333 23.1681 17.9847C24.2882 17.6875 25.1683 16.796 25.4655 15.6644C26.0141 13.6185 26.0141 9.36662 26.0141 9.36662C26.0141 9.36662 26.0141 5.10332 25.4655 3.06882H25.4769ZM10.3439 13.2413V5.50336L17.1446 9.36662L10.3439 13.2299V13.2413Z" fill="white"/>
</svg>
