<svg width="22" height="22" viewBox="0 0 22 22" fill="none" xmlns="http://www.w3.org/2000/svg">
<path d="M21.64 19.92L17.5 15.78C19.56 13.14 20.11 9.61996 18.98 6.46996C17.85 3.31996 15.19 0.969963 11.92 0.239963C8.64996 -0.500037 5.22996 0.499963 2.86996 2.86996C0.499963 5.22996 -0.500037 8.64996 0.239963 11.92C0.969963 15.19 3.32996 17.86 6.47996 18.99C9.62996 20.12 13.15 19.56 15.79 17.51L19.93 21.65C20.16 21.88 20.47 22.01 20.79 22.01C21.11 22.01 21.42 21.88 21.65 21.65C21.88 21.42 22.01 21.11 22.01 20.79C22.01 20.47 21.88 20.16 21.65 19.93L21.64 19.92ZM9.80996 17.12C5.76996 17.12 2.49996 13.85 2.49996 9.80996C2.49996 5.76996 5.76996 2.49996 9.80996 2.49996C13.85 2.49996 17.12 5.76996 17.12 9.80996C17.12 13.85 13.85 17.12 9.80996 17.12V17.12Z" fill="white"/>
</svg>
