<?xml version="1.0" encoding="UTF-8"?>
<svg version="1.1" xmlns="http://www.w3.org/2000/svg" width="512" height="512">
<path d="M0 0 C1.37285156 -0.04253906 1.37285156 -0.04253906 2.7734375 -0.0859375 C8.55003826 0.8478144 12.64599803 5.14566715 16.66094971 9.15698242 C17.13019009 9.62310283 17.59943048 10.08922323 18.08289027 10.5694685 C19.63977764 12.11843624 21.18948611 13.67438421 22.73925781 15.23046875 C23.85962301 16.34812148 24.9804127 17.46534881 26.10159302 18.58218384 C29.13488543 21.60638257 32.16184635 24.63684442 35.18741703 27.66876602 C38.35719683 30.84361894 41.53186431 34.01357843 44.70574951 37.18432617 C50.03204528 42.50698719 55.35411857 47.83384292 60.67382812 53.16308594 C66.82425616 59.32440874 72.98187108 65.47847845 79.14324689 71.62885189 C84.43621317 76.91274465 89.72527505 82.20052188 95.01108813 87.49157047 C98.16685858 90.65045882 101.32396451 93.80798056 104.48459625 96.96200562 C107.45385856 99.9254938 110.41819163 102.89382573 113.37878036 105.86597824 C114.46628963 106.95613324 115.55550674 108.04458759 116.6465416 109.13121414 C118.13469467 110.61390731 119.61655851 112.1026152 121.09698486 113.59301758 C121.92802357 114.42481033 122.75906227 115.25660309 123.61528397 116.11360168 C127.77183154 120.79068517 128.05933739 124.57121112 127.9453125 130.6796875 C127.37930725 135.44241463 125.0594371 138.11443406 121.5625 141.1875 C118.13499109 143.28823127 115.34332631 143.49784638 111.41918945 143.48852539 C109.82787956 143.48841209 109.82787956 143.48841209 108.204422 143.48829651 C107.06059555 143.48313522 105.9167691 143.47797394 104.73828125 143.47265625 C103.56613571 143.4712413 102.39399017 143.46982635 101.18632507 143.46836853 C97.43669093 143.46276388 93.68711615 143.45021056 89.9375 143.4375 C87.39778732 143.4324856 84.8580737 143.42792259 82.31835938 143.42382812 C76.08721927 143.41279294 69.85611388 143.39605025 63.625 143.375 C63.62727832 144.51103218 63.62727832 144.51103218 63.62960267 145.6700145 C63.7190766 190.53733681 63.78772681 235.40464944 63.82926132 280.27204306 C63.83426426 285.65694813 63.83944154 291.04185301 63.84472656 296.42675781 C63.8457758 297.49881465 63.84682505 298.57087149 63.84790608 299.6754149 C63.86532069 317.04371291 63.89686419 334.41195806 63.93361118 351.7802247 C63.97099123 369.59602588 63.99322964 387.41179934 64.00135398 405.22763813 C64.00684784 416.22474536 64.02421203 427.22170321 64.05666587 438.21876447 C64.0777775 445.75550858 64.08420765 453.29217524 64.07900551 460.82894678 C64.07643851 465.18006515 64.08042799 469.53092213 64.1018219 473.88199425 C64.12126121 477.86455752 64.12228728 481.84668317 64.10859558 485.82926641 C64.10690294 487.27082599 64.11199959 488.71241267 64.12453273 490.15391876 C64.2339391 503.51295952 64.2339391 503.51295952 59.625 508.375 C54.45196951 513.03692196 49.83817257 512.94787576 43.21679688 512.89257812 C41.6644912 512.90309204 41.6644912 512.90309204 40.08082581 512.91381836 C36.66819232 512.93138897 33.25639157 512.91977829 29.84375 512.90625 C27.46773113 512.90894517 25.09171334 512.91282779 22.71569824 512.91784668 C17.73923223 512.92374049 12.76305366 512.91518215 7.78662109 512.89648438 C1.41088734 512.87369537 -4.96417285 512.88681901 -11.3398819 512.91077423 C-16.24527045 512.92523508 -21.15049957 512.92062479 -26.05589294 512.91026306 C-28.40661194 512.90759659 -30.75734545 512.91086269 -33.10804749 512.92018127 C-36.39468677 512.9303511 -39.68023849 512.9148383 -42.96679688 512.89257812 C-43.93632797 512.90067505 -44.90585907 512.90877197 -45.9047699 512.91711426 C-51.54616471 512.84640466 -55.01338162 512.30567942 -59.375 508.375 C-64.89817652 502.54851646 -63.92219696 495.6360469 -63.85601807 488.02444458 C-63.85776287 486.53845993 -63.8612661 485.05247648 -63.86637473 483.56649959 C-63.87531659 479.48673279 -63.85932214 475.40738622 -63.83926249 471.32767296 C-63.82199042 466.92691951 -63.82783401 462.5261898 -63.83087158 458.12541199 C-63.8329691 450.50197865 -63.82041793 442.87868225 -63.79792023 435.25528336 C-63.76541356 424.23314825 -63.75499457 413.21107937 -63.74996826 402.18890153 C-63.74121352 384.30623536 -63.71459306 366.42364217 -63.67675781 348.54101562 C-63.64004237 331.16960007 -63.61172832 313.79820433 -63.59472656 296.42675781 C-63.59367567 295.35600274 -63.59262477 294.28524767 -63.59154204 293.18204547 C-63.58632189 287.81038783 -63.58126706 282.43873004 -63.57629442 277.06707215 C-63.53482681 232.50299755 -63.46437348 187.93900254 -63.375 143.375 C-64.02566437 143.38166183 -64.67632874 143.38832367 -65.34671021 143.39518738 C-72.12757418 143.46163164 -78.90834543 143.50683853 -85.68945312 143.53979492 C-88.21911374 143.55486786 -90.74874829 143.57532961 -93.27832031 143.60131836 C-96.91738323 143.63776616 -100.55610016 143.6547417 -104.1953125 143.66796875 C-105.32365509 143.68345261 -106.45199768 143.69893646 -107.61453247 143.71488953 C-113.26067664 143.71609575 -117.55974521 143.6922084 -122.375 140.375 C-126.13060264 136.21338627 -127.54313949 133.68667876 -127.6875 128.125 C-127.72488281 127.19171875 -127.76226562 126.2584375 -127.80078125 125.296875 C-126.95148879 119.46870286 -122.62573904 115.37542757 -118.59301758 111.33905029 C-118.12689717 110.86980991 -117.66077677 110.40056952 -117.1805315 109.91710973 C-115.63156376 108.36022236 -114.07561579 106.81051389 -112.51953125 105.26074219 C-111.40187852 104.14037699 -110.28465119 103.0195873 -109.16781616 101.89840698 C-106.14361743 98.86511457 -103.11315558 95.83815365 -100.08123398 92.81258297 C-96.90638106 89.64280317 -93.73642157 86.46813569 -90.56567383 83.29425049 C-85.24301281 77.96795472 -79.91615708 72.64588143 -74.58691406 67.32617188 C-68.42559126 61.17574384 -62.27152155 55.01812892 -56.12114811 48.85675311 C-50.83725535 43.56378683 -45.54947812 38.27472495 -40.25842953 32.98891187 C-37.09954118 29.83314142 -33.94201944 26.67603549 -30.78799438 23.51540375 C-27.8245062 20.54614144 -24.85617427 17.58180837 -21.88402176 14.62121964 C-20.79386676 13.53371037 -19.70541241 12.44449326 -18.61878586 11.3534584 C-17.13609269 9.86530533 -15.6473848 8.38344149 -14.15698242 6.90301514 C-12.90929329 5.65645708 -12.90929329 5.65645708 -11.63639832 4.38471603 C-7.84685677 1.01693144 -5.0415261 0.07060961 0 0 Z " fill="#000000" transform="translate(384.375,-0.375)"/>
<path d="M0 0 C0.97299042 -0.00511093 1.94598083 -0.01022186 2.94845581 -0.01548767 C6.16190764 -0.02937646 9.37514478 -0.02842715 12.58862305 -0.02612305 C14.8267576 -0.03001088 17.06489143 -0.03434573 19.30302429 -0.03910828 C23.99452099 -0.04656934 28.68594243 -0.04628038 33.37744141 -0.04101562 C39.37960013 -0.03522674 45.38144969 -0.05213872 51.38355732 -0.0753603 C56.00676769 -0.09011825 60.62990402 -0.09096642 65.25313377 -0.08785057 C67.46544188 -0.08836293 69.67775423 -0.09358453 71.89003944 -0.10366249 C74.98939495 -0.11604678 78.08815351 -0.10922252 81.1875 -0.09765625 C82.09530716 -0.10529999 83.00311432 -0.11294373 83.93843079 -0.12081909 C90.63347885 -0.06580374 96.66223995 0.71815114 101.6628418 5.5871582 C105.58438581 12.07278868 105.57306577 18.05929445 105.54180908 25.42710876 C105.54648905 27.11798082 105.54648905 27.11798082 105.55126357 28.84301192 C105.55924428 32.6222824 105.55291949 36.40139236 105.54663086 40.18066406 C105.54824043 42.88937208 105.55282924 45.59807327 105.55725098 48.30677795 C105.56614199 54.90170934 105.56422419 61.49659518 105.55842569 68.09152835 C105.55390768 73.452218 105.55329691 78.81289489 105.55547333 84.17358589 C105.55577979 84.93675159 105.55608626 85.6999173 105.55640201 86.48620923 C105.55704147 88.03661191 105.5576899 89.58701459 105.5583472 91.13741726 C105.56404973 105.67431822 105.55749399 120.21119394 105.54674646 134.74809075 C105.53781282 147.21748981 105.5393616 159.68685162 105.54858398 172.15625 C105.55929105 186.63982795 105.56349853 201.12338377 105.55735946 215.60696512 C105.55672237 217.15194833 105.55609363 218.69693154 105.55547333 220.24191475 C105.5550105 221.38212403 105.5550105 221.38212403 105.55453832 222.54536785 C105.55281256 227.89820553 105.55572397 233.25102916 105.56043243 238.60386467 C105.56604619 245.12929102 105.56451448 251.65466927 105.55387095 258.18009012 C105.54862059 261.50855757 105.54762612 264.83687857 105.55316925 268.16535568 C105.5586273 271.77539196 105.55178704 275.38520216 105.54180908 278.995224 C105.54627053 280.04464312 105.55073197 281.09406224 105.55532861 282.17528194 C105.5188149 288.97783851 105.48610366 294.73820221 100.8503418 300.0871582 C97.37776382 303.05155404 95.40507315 304.52273067 90.86735535 304.54208374 C89.51108284 304.55487869 89.51108284 304.55487869 88.12741089 304.56793213 C87.13774323 304.56702576 86.14807556 304.56611938 85.12841797 304.56518555 C84.08423203 304.57190277 83.04004608 304.57862 81.96421814 304.58554077 C78.50303421 304.60458023 75.04204362 304.60844814 71.58081055 304.6105957 C69.17808451 304.61702003 66.77535926 304.62374811 64.37263489 304.63076782 C59.33124986 304.64275586 54.28993343 304.64644713 49.24853516 304.64526367 C42.78869124 304.64506052 36.32928747 304.67235225 29.86954784 304.70680809 C24.9049935 304.72904808 19.94054549 304.73310208 14.97594643 304.73204422 C12.59451087 304.73440495 10.2130726 304.74325489 7.83168602 304.75870895 C4.49929406 304.77830731 1.1678566 304.77255409 -2.16455078 304.76049805 C-3.14814575 304.77173706 -4.13174072 304.78297607 -5.1451416 304.79455566 C-10.79084687 304.74266047 -14.44244928 304.34472393 -18.7121582 300.2746582 C-23.06285104 294.06407558 -23.28012618 288.10535618 -23.21336365 280.72311401 C-23.21889804 279.57711735 -23.22443244 278.43112068 -23.23013455 277.25039685 C-23.24372171 273.41955736 -23.22878148 269.58937153 -23.21386719 265.75854492 C-23.21544366 263.00850326 -23.22299923 260.25848517 -23.23023987 257.50845337 C-23.24415227 250.82050005 -23.23663146 244.13273592 -23.22156429 237.44479166 C-23.2046824 229.65414691 -23.20791711 221.863549 -23.21165837 214.07289161 C-23.21753308 200.17249828 -23.20337961 186.27219561 -23.17871094 172.37182617 C-23.15478204 158.88676558 -23.14771077 145.40182606 -23.15820312 131.91674805 C-23.16961352 117.2254978 -23.17154161 102.53430351 -23.15710503 87.84305394 C-23.15557921 86.27649443 -23.15405885 84.70993492 -23.15254402 83.1433754 C-23.15178621 82.3726287 -23.15102839 81.601882 -23.15024761 80.80777933 C-23.14550645 75.37830271 -23.14735497 69.94885109 -23.15160942 64.51937485 C-23.15653697 57.9035428 -23.15054754 51.2878252 -23.13071512 44.67201935 C-23.12084681 41.29703015 -23.11734258 37.9223607 -23.12360764 34.54734039 C-23.12954816 30.88878462 -23.11707812 27.23074438 -23.09983826 23.57223511 C-23.1058483 22.50570359 -23.11185835 21.43917207 -23.11805052 20.34032142 C-23.07135124 14.90477859 -22.82642092 10.94263009 -19.7121582 6.2746582 C-13.57942182 0.46469742 -8.07666886 -0.02189487 0 0 Z " fill="#000000" transform="translate(182.712158203125,207.725341796875)"/>
<path d="M0 0 C0.87749405 -0.0071553 1.7549881 -0.01431061 2.65907288 -0.02168274 C3.61911728 -0.02437164 4.57916168 -0.02706055 5.56829834 -0.02983093 C6.58161728 -0.03640213 7.59493622 -0.04297333 8.63896179 -0.04974365 C11.99789502 -0.06948071 15.35678353 -0.08114018 18.71575928 -0.09111023 C19.86269005 -0.09518576 21.00962082 -0.09926128 22.19130707 -0.10346031 C28.26179322 -0.12432275 34.33225675 -0.13862376 40.402771 -0.147995 C46.67192449 -0.15905994 52.9407231 -0.19346074 59.20975113 -0.23316669 C64.0310736 -0.25931511 68.85231128 -0.26768528 73.67369843 -0.27127647 C75.98453925 -0.27614696 78.29537618 -0.287774 80.60614777 -0.30631447 C83.84251509 -0.33066739 87.07796115 -0.32974752 90.31439209 -0.32279968 C91.26633957 -0.33560974 92.21828705 -0.3484198 93.19908142 -0.36161804 C99.21906271 -0.31458507 102.92899467 0.3457781 107.70013428 4.14717102 C113.150906 10.56380577 112.26645011 18.95976572 112.2177124 26.89741516 C112.22313963 28.3847624 112.23026565 29.87210426 112.23895264 31.35943604 C112.25711622 35.38010052 112.25014797 39.40035234 112.23743629 43.42102361 C112.22727422 47.63781 112.23671068 51.85456224 112.24298096 56.0713501 C112.25024726 63.15015475 112.24069563 70.22879218 112.22161865 77.30757141 C112.19984338 85.48179104 112.20691 93.65561165 112.22892427 101.82982165 C112.24709732 108.86021743 112.24962757 115.89049336 112.2391696 122.92090505 C112.23294619 127.11460403 112.23206734 131.30811564 112.24531555 135.50180244 C112.25690159 139.44430592 112.24879866 143.38629659 112.22573853 147.32874489 C112.22046641 148.77226664 112.22193955 150.21583183 112.23078918 151.65933609 C112.30817536 165.56831622 112.30817536 165.56831622 107.70013428 171.14717102 C102.59301203 175.88294049 97.80695727 175.71939818 91.20013428 175.66474915 C90.15551025 175.67175842 89.11088623 175.6787677 88.03460693 175.68598938 C84.58951047 175.70356124 81.14523876 175.69194884 77.70013428 175.67842102 C75.30169518 175.68111615 72.90325714 175.68499874 70.50482178 175.6900177 C65.48127832 175.69591168 60.45801961 175.68735261 55.43450928 175.6686554 C48.99824356 175.64586639 42.56264505 175.65898994 36.12640381 175.68294525 C31.1746926 175.69740563 26.22313933 175.69279602 21.27142334 175.68243408 C18.89837566 175.67976749 16.5253136 175.68303416 14.15228271 175.69235229 C10.834514 175.70252133 7.51782283 175.68701036 4.20013428 175.66474915 C3.22125244 175.67284607 2.24237061 175.68094299 1.23382568 175.68928528 C-4.41943128 175.6190834 -7.92308874 175.08977409 -12.29986572 171.14717102 C-15.15854475 167.23294585 -15.67727397 164.4745168 -15.68754578 159.66390991 C-15.69745041 158.35309952 -15.70735504 157.04228912 -15.71755981 155.6917572 C-15.71332201 154.245986 -15.70876417 152.8002157 -15.70391846 151.35444641 C-15.7096229 149.82651266 -15.71658745 148.29858318 -15.72471619 146.7706604 C-15.74265478 142.62599621 -15.74147791 138.48154366 -15.7357738 134.33685231 C-15.73268291 130.87508923 -15.7387733 127.41336685 -15.74481255 123.95160955 C-15.7588585 115.78409623 -15.75729595 107.61668751 -15.74591064 99.44917297 C-15.73442939 91.02677987 -15.74850496 82.60470518 -15.77530712 74.18235403 C-15.79746762 66.94737699 -15.80410071 59.71249988 -15.79823071 52.47749132 C-15.79486074 48.15801299 -15.79727873 43.83873877 -15.81448174 39.51928902 C-15.82995444 35.4570211 -15.82599205 31.39522469 -15.80717659 27.33297539 C-15.80349156 25.8438768 -15.80659676 24.35474325 -15.81706238 22.86567688 C-15.83027761 20.82962575 -15.81631341 18.79345273 -15.80107117 16.75741577 C-15.80086188 15.61904298 -15.8006526 14.48067019 -15.80043697 13.30780125 C-15.05493652 8.6006766 -12.78222793 5.44985296 -9.23736572 2.33467102 C-6.13087421 0.43069235 -3.56034315 0.01995551 0 0 Z " fill="#000000" transform="translate(15.29986572265625,336.8528289794922)"/>
</svg>
