<svg width="21" height="20" viewBox="0 0 21 20" fill="none" xmlns="http://www.w3.org/2000/svg">
<path d="M2.55066 0.0999756C1.23594 0.0999756 0.166748 1.16917 0.166748 2.48389C0.166748 3.7986 1.23594 4.8678 2.55066 4.8678C3.86537 4.8678 4.93457 3.7986 4.93457 2.48389C4.93457 1.16917 3.86537 0.0999756 2.55066 0.0999756Z" fill="white"/>
<path d="M4.60217 6.67334H0.491699V19.8997H4.60217V6.67334Z" fill="white"/>
<path d="M15.0722 6.34888C13.0763 6.34888 11.7299 7.44183 11.1835 8.48724H11.128V6.68152H7.18384V19.8999H11.2943V13.358C11.2943 11.6315 11.6191 9.96035 13.7574 9.96035C15.8958 9.96035 15.8958 11.9324 15.8958 13.4689V19.8999H20.0063V12.6452C20.0063 9.08123 19.2381 6.34888 15.0722 6.34888Z" fill="white"/>
</svg>
