<svg width="25" height="20" viewBox="0 0 25 20" fill="none" xmlns="http://www.w3.org/2000/svg">
<path fill-rule="evenodd" clip-rule="evenodd" d="M1.66141 8.61055C8.14329 5.78572 12.4646 3.92916 14.6252 3.0249C20.803 0.464138 22.0834 0.0160047 22.9237 0C23.1077 0 23.5158 0.0400118 23.7879 0.256076C24.012 0.44013 24.0761 0.688204 24.1081 0.856254C24.1401 1.0243 24.172 1.42442 24.148 1.72851C23.8119 5.24155 22.3635 13.7721 21.6273 17.7092C21.3152 19.3737 20.6991 19.9339 20.1069 19.9899C18.8185 20.11 17.8342 19.1337 16.5858 18.3174C14.6332 17.0371 13.5209 16.2368 11.6243 14.9884C9.43167 13.54 10.8561 12.7478 12.1045 11.4514C12.4326 11.1153 18.1222 5.93776 18.2263 5.46562C18.2423 5.4096 18.2503 5.18554 18.1222 5.0735C17.9942 4.96147 17.8022 5.00148 17.6581 5.02549C17.4581 5.0735 14.3371 7.13812 8.27933 11.2193C7.39111 11.8275 6.59087 12.1236 5.87066 12.1076C5.07842 12.0916 3.54997 11.6595 2.41364 11.2913C1.02122 10.8512 -0.0831055 10.6111 0.00492036 9.84292C0.0529346 9.4428 0.605098 9.03468 1.66141 8.61856V8.61055Z" fill="white"/>
</svg>
